<?xml version="1.0" ?><svg enable-background="new 0 0 512 512" id="Layer_1" version="1.1" viewBox="0 0 512 512" xml:space="preserve" xmlns="http://www.w3.org/2000/svg" xmlns:xlink="http://www.w3.org/1999/xlink"><g><g><linearGradient gradientUnits="userSpaceOnUse" id="SVGID_1_" x1="0.0000083" x2="512" y1="256" y2="256"><stop offset="0" style="stop-color:#F35CB5"/><stop offset="1" style="stop-color:#EC008C"/></linearGradient><circle cx="256" cy="256" fill="url(#SVGID_1_)" r="256"/><linearGradient gradientUnits="userSpaceOnUse" id="SVGID_2_" x1="42.6666756" x2="469.333313" y1="256.0005188" y2="256.0005188"><stop offset="0" style="stop-color:#EC008C"/><stop offset="1" style="stop-color:#F35CB5"/></linearGradient><path d="M256,469.3338623c-117.6309204,0-213.3333282-95.7018738-213.3333282-213.3333435    c0-117.6309204,95.7024078-213.333313,213.3333282-213.333313c117.636261,0,213.333313,95.7024002,213.333313,213.333313    C469.333313,373.6319885,373.636261,469.3338623,256,469.3338623z" fill="url(#SVGID_2_)"/></g><g><polygon opacity="0.3" points="252.2906647,177.8074646 180.5839996,177.8074646 216.4442596,219.9994659   "/><polygon opacity="0.3" points="169.6746826,181.6607971 144.0016174,222.9402618 204.7583923,222.9402618   "/><polygon opacity="0.3" points="347.4117126,177.8074646 275.662384,177.8074646 311.5349426,219.9994659   "/><polygon opacity="0.3" points="146.7397461,233.7509308 250.6927948,344.7338562 212.5989227,233.7509308   "/><polygon opacity="0.3" points="299.846405,222.9402618 263.973877,180.7471924 228.1269226,222.9402618   "/><polygon opacity="0.3" points="383.9983826,222.9402618 358.3237305,181.6575928 323.223999,222.9402618   "/><polygon opacity="0.3" points="277.3061218,344.7359924 381.2608032,233.7509308 315.3962708,233.7509308   "/><polygon opacity="0.3" points="224.0319977,233.7509308 263.9994507,350.1930542 303.9632263,233.7509308   "/></g><g><polygon fill="#FFFFFF" points="244.2906647,169.8074646 172.5840149,169.8074646 208.4442596,211.9994659   "/><polygon fill="#FFFFFF" points="161.6746826,173.6607971 136.0016022,214.9402618 196.7583923,214.9402618   "/><polygon fill="#FFFFFF" points="339.4117126,169.8074646 267.662384,169.8074646 303.5349426,211.9994659   "/><polygon fill="#FFFFFF" points="138.7397461,225.7509308 242.6927948,336.7338562 204.5989227,225.7509308   "/><polygon fill="#FFFFFF" points="291.846405,214.9402618 255.973877,172.7471924 220.1269226,214.9402618   "/><polygon fill="#FFFFFF" points="375.9983826,214.9402618 350.3237305,173.6575928 315.223999,214.9402618   "/><polygon fill="#FFFFFF" points="269.3061218,336.7359924 373.2608032,225.7509308 307.3962708,225.7509308   "/><polygon fill="#FFFFFF" points="216.0319977,225.7509308 255.9994659,342.1930542 295.9632263,225.7509308   "/></g></g></svg>