<?xml version="1.0" ?><svg id="Layer_1" style="enable-background:new 0 0 512 512;" version="1.1" viewBox="0 0 512 512" xml:space="preserve" xmlns="http://www.w3.org/2000/svg" xmlns:xlink="http://www.w3.org/1999/xlink"><style type="text/css">
	.st0{fill:#2E2E2E;}
	.st1{fill:#5EA4D3;}
</style><g><g id="XMLID_285_"><polygon class="st0" id="XMLID_288_" points="340.1,6 340.1,112.8 448.6,112.8   "/><path class="st1" d="M448.4,124.8H328.3c-0.1,0-0.2-0.1-0.2-0.2V6.5c0-0.1-0.1-0.2-0.2-0.2H81.6    c-0.1,0-0.2,0.1-0.2,0.2v270.2h229.8l58.9,159H81.4v70c0,0.1,0.1,0.2,0.2,0.2h366.2c0.1,0,0.2-0.1,0.2-0.2l0.6-380.7    C448.6,124.9,448.5,124.8,448.4,124.8z" id="XMLID_287_"/></g><g><path class="st0" d="M258.8,333.6h-15.1v24.7h15.1c4.3,0,7.6-1.2,9.8-3.5c2.2-2.3,3.3-5.2,3.3-8.8s-1.1-6.5-3.3-8.9    C266.3,334.8,263.1,333.6,258.8,333.6z"/><path class="st0" d="M120.8,333.6h-15.1v24.7h15.1c4.3,0,7.6-1.2,9.8-3.5c2.2-2.3,3.3-5.2,3.3-8.8s-1.1-6.5-3.3-8.9    C128.4,334.8,125.1,333.6,120.8,333.6z"/><path class="st0" d="M302.9,288.8H63.4v135h289.5L302.9,288.8z M138.9,361.8c-4.4,4-10.4,5.9-18.1,5.9h-15.1v26.5H93.9v-70h26.8    c7.7,0,13.8,2,18.1,6s6.6,9.2,6.6,15.7C145.5,352.5,143.3,357.8,138.9,361.8z M214.3,394.2h-11.7v-29.9h-31.3v29.9h-11.7v-70h11.7    V355h31.3v-30.8h11.7V394.2z M276.9,361.8c-4.4,4-10.4,5.9-18.1,5.9h-15.1v26.5h-11.7v-70h26.8c7.7,0,13.8,2,18.1,6    s6.6,9.2,6.6,15.7C283.5,352.5,281.3,357.8,276.9,361.8z"/></g></g></svg>