<?xml version="1.0" encoding="utf-8"?>
<!-- Generator: Adobe Illustrator 21.1.0, SVG Export Plug-In . SVG Version: 6.00 Build 0)  -->
<svg version="1.1" id="Layer_1" xmlns="http://www.w3.org/2000/svg" xmlns:xlink="http://www.w3.org/1999/xlink" x="0px" y="0px"
	 viewBox="0 0 175 65" style="enable-background:new 0 0 175 65;" xml:space="preserve">
<style type="text/css">
	.st0{fill:none;}
	.st1{fill:#A05DA5;}
	.st2{fill:#F15A31;}
	.st3{fill:#37414B;}
	.st4{fill:#0097BE;}
	.st5{fill:#FCAF17;}
	.st6{fill:#FFFFFF;}
	.st7{fill:#636270;}
</style>
<g>
	<g>
		<circle class="st0" cx="66.6" cy="24.9" r="10"/>
		<circle class="st0" cx="108.4" cy="24.9" r="10"/>
		<circle class="st0" cx="24.9" cy="24.9" r="10"/>
		<circle class="st0" cx="150.1" cy="24.9" r="10"/>
		<path class="st1" d="M45.8,11.3C41.3,4.5,33.6,0,24.9,0C11.1,0,0,11.1,0,24.9s11.1,24.9,24.9,24.9c8.7,0,16.4-4.5,20.9-11.3
			c-2.6-3.9-4-8.6-4-13.6S43.2,15.2,45.8,11.3z M24.9,34.9c-5.5,0-10-4.5-10-10s4.5-10,10-10c5.5,0,10,4.5,10,10
			S30.4,34.9,24.9,34.9z"/>
		<path class="st2" d="M87.5,11.3C83.1,4.5,75.4,0,66.6,0c-8.7,0-16.4,4.5-20.9,11.3c2.6,3.9,4,8.6,4,13.6s-1.5,9.7-4,13.6
			c4.4,6.8,12.1,11.3,20.9,11.3c8.7,0,16.4-4.5,20.9-11.3c-2.6-3.9-4-8.6-4-13.6S84.9,15.2,87.5,11.3z M66.6,34.9
			c-5.5,0-10-4.5-10-10s4.5-10,10-10c5.5,0,10,4.5,10,10S72.2,34.9,66.6,34.9z"/>
		<path class="st3" d="M45.8,11.3c-2.6,3.9-4,8.6-4,13.6s1.5,9.7,4,13.6c2.6-3.9,4-8.6,4-13.6S48.3,15.2,45.8,11.3z"/>
		<path class="st4" d="M129.2,11.3C124.8,4.5,117.1,0,108.4,0c-8.7,0-16.4,4.5-20.9,11.3c2.6,3.9,4,8.6,4,13.6s-1.5,9.7-4,13.6
			c4.4,6.8,12.1,11.3,20.9,11.3c8.7,0,16.4-4.5,20.9-11.3c-2.6-3.9-4-8.6-4-13.6S126.7,15.2,129.2,11.3z M108.4,34.9
			c-5.5,0-10-4.5-10-10s4.5-10,10-10c5.5,0,10,4.5,10,10S113.9,34.9,108.4,34.9z"/>
		<path class="st3" d="M87.5,11.3c-2.6,3.9-4,8.6-4,13.6s1.5,9.7,4,13.6c2.6-3.9,4-8.6,4-13.6S90.1,15.2,87.5,11.3z"/>
		<path class="st5" d="M150.1,0c-8.7,0-16.4,4.5-20.9,11.3c2.6,3.9,4,8.6,4,13.6s-1.5,9.7-4,13.6c4.4,6.8,12.1,11.3,20.9,11.3
			c13.8,0,24.9-11.1,24.9-24.9S163.9,0,150.1,0z M150.1,34.9c-5.5,0-10-4.5-10-10s4.5-10,10-10c5.5,0,10,4.5,10,10
			S155.6,34.9,150.1,34.9z"/>
		<path class="st3" d="M129.2,11.3c-2.6,3.9-4,8.6-4,13.6s1.5,9.7,4,13.6c2.6-3.9,4-8.6,4-13.6S131.8,15.2,129.2,11.3z"/>
	</g>
	<path class="st6" d="M45.8,17.8c-3.6,0-6.7,2.7-7.2,6.1h-1.5l1.9,2.9l1.9-2.9h-1.2c0.5-2.9,3.1-5.1,6.1-5.1c3.4,0,6.2,2.7,6.2,6.1
		S49.3,31,45.8,31c-1.9,0-3.6-0.7-4.7-2L41,28.8l-0.8,0.6l0.2,0.2c1.5,1.6,3.4,2.4,5.4,2.4c4,0,7.2-3.2,7.2-7.1
		C53.1,21,49.8,17.8,45.8,17.8z"/>
	<path class="st6" d="M87.6,17.8c-3.6,0-6.7,2.7-7.2,6.1H79l1.9,2.9l1.9-2.9h-1.2c0.5-2.9,3.1-5.1,6.1-5.1c3.4,0,6.2,2.7,6.2,6.1
		S91.1,31,87.6,31c-1.9,0-3.6-0.7-4.7-2l-0.2-0.2L82,29.4l0.2,0.2c1.5,1.6,3.4,2.4,5.4,2.4c4,0,7.2-3.2,7.2-7.1
		C94.9,21,91.6,17.8,87.6,17.8z"/>
	<path class="st6" d="M129.2,17.8c-3.6,0-6.7,2.7-7.2,6.1h-1.5l1.9,2.9l1.9-2.9H123c0.5-2.9,3.1-5.1,6.1-5.1c3.4,0,6.2,2.7,6.2,6.1
		s-2.8,6.1-6.2,6.1c-1.9,0-3.6-0.7-4.7-2l-0.2-0.2l-0.8,0.6l0.2,0.2c1.5,1.6,3.4,2.4,5.4,2.4c4,0,7.2-3.2,7.2-7.1
		C136.4,21,133.1,17.8,129.2,17.8z"/>
</g>
<g>
	<path class="st7" d="M7.2,55.4h1.4c1.4,0,2.7,0.6,2.7,2.4c0,1.7-1.3,2.4-2.7,2.4H7.2V55.4z M8.6,59.4c1,0,1.7-0.4,1.7-1.6
		c0-1.1-0.7-1.5-1.7-1.5H8.1v3.1H8.6z"/>
	<path class="st7" d="M12.6,55.4h0.9v4.8h-0.9V55.4z"/>
	<path class="st7" d="M14.7,60v-0.9c0.3,0.2,0.8,0.3,1.3,0.3c0.4,0,0.7-0.2,0.7-0.5s-0.4-0.5-0.8-0.7c-0.6-0.3-1.2-0.6-1.2-1.5
		c0-1,0.8-1.4,1.6-1.4c0.6,0,1,0.1,1.1,0.2v0.9c-0.3-0.1-0.7-0.3-1.1-0.3c-0.4,0-0.7,0.2-0.7,0.5c0,0.4,0.4,0.5,0.8,0.7
		c0.6,0.3,1.2,0.6,1.2,1.5c0,1-0.8,1.4-1.7,1.4C15.5,60.3,15,60.2,14.7,60z"/>
	<path class="st7" d="M18.7,57.8c0-1.3,0.9-2.5,2.6-2.5c0.6,0,1.1,0.2,1.3,0.3v0.9c-0.4-0.2-0.8-0.3-1.3-0.3c-1.1,0-1.6,0.8-1.6,1.6
		c0,1,0.6,1.7,1.6,1.7c0.6,0,0.9-0.1,1.2-0.3V60c-0.3,0.2-0.8,0.3-1.4,0.3C19.7,60.3,18.7,59.2,18.7,57.8z"/>
	<path class="st7" d="M23.5,57.8c0-1.5,1-2.5,2.5-2.5c1.4,0,2.5,1,2.5,2.5c0,1.5-1,2.5-2.5,2.5C24.6,60.3,23.5,59.3,23.5,57.8z
		 M27.5,57.8c0-0.9-0.5-1.6-1.5-1.6c-0.9,0-1.5,0.7-1.5,1.6c0,0.9,0.5,1.6,1.5,1.6C26.9,59.4,27.5,58.7,27.5,57.8z"/>
	<path class="st7" d="M29.1,55.4h1l1.2,3.8h0l1.2-3.8h1l-1.7,4.8h-1L29.1,55.4z"/>
	<path class="st7" d="M34.5,55.4h3.1v0.8h-2.1v1.1h2v0.8h-2v1.2h2.2v0.8h-3.1V55.4z"/>
	<path class="st7" d="M38.8,55.4h1.7c1,0,1.8,0.4,1.8,1.4c0,0.7-0.4,1.1-0.9,1.3l1.2,2.1h-1.1l-1-1.9h-0.8v1.9h-0.9V55.4z
		 M40.5,57.6c0.5,0,0.8-0.2,0.8-0.7c0-0.5-0.3-0.7-0.8-0.7h-0.7v1.4H40.5z"/>
</g>
<g>
	<path class="st7" d="M54.2,55.4h1.4c1.4,0,2.7,0.6,2.7,2.4c0,1.7-1.3,2.4-2.7,2.4h-1.5V55.4z M55.6,59.4c1,0,1.7-0.4,1.7-1.6
		c0-1.1-0.7-1.5-1.7-1.5h-0.5v3.1H55.6z"/>
	<path class="st7" d="M59.6,55.4h3.1v0.8h-2.1v1.1h2v0.8h-2v1.2h2.2v0.8h-3.1V55.4z"/>
	<path class="st7" d="M63.9,55.4h3v0.8h-2.1v1.2h1.9v0.8h-1.9v2h-0.9V55.4z"/>
	<path class="st7" d="M68.1,55.4h0.9v4.8h-0.9V55.4z"/>
	<path class="st7" d="M70.5,55.4h1.2l2.1,3.6h0v-3.6h0.9v4.8h-1.2l-2.1-3.7h0v3.7h-0.9V55.4z"/>
	<path class="st7" d="M76.2,55.4h3.1v0.8h-2.1v1.1h2v0.8h-2v1.2h2.2v0.8h-3.1V55.4z"/>
</g>
<g>
	<path class="st7" d="M95.1,55.4h1.4c1.4,0,2.7,0.6,2.7,2.4c0,1.7-1.3,2.4-2.7,2.4h-1.5V55.4z M96.5,59.4c1,0,1.7-0.4,1.7-1.6
		c0-1.1-0.7-1.5-1.7-1.5h-0.5v3.1H96.5z"/>
	<path class="st7" d="M100.5,55.4h3.1v0.8h-2.1v1.1h2v0.8h-2v1.2h2.2v0.8h-3.1V55.4z"/>
	<path class="st7" d="M104.6,60v-0.9c0.3,0.2,0.8,0.3,1.3,0.3c0.4,0,0.7-0.2,0.7-0.5s-0.4-0.5-0.8-0.7c-0.6-0.3-1.2-0.6-1.2-1.5
		c0-1,0.8-1.4,1.6-1.4c0.6,0,1,0.1,1.1,0.2v0.9c-0.3-0.1-0.7-0.3-1.1-0.3c-0.4,0-0.7,0.2-0.7,0.5c0,0.4,0.4,0.5,0.8,0.7
		c0.6,0.3,1.2,0.6,1.2,1.5c0,1-0.8,1.4-1.7,1.4C105.4,60.3,104.9,60.2,104.6,60z"/>
	<path class="st7" d="M108.8,55.4h0.9v4.8h-0.9V55.4z"/>
	<path class="st7" d="M111,57.8c0-1.3,1-2.5,2.7-2.5c0.8,0,1.3,0.2,1.5,0.3v0.9c-0.3-0.2-0.8-0.4-1.5-0.4c-1,0-1.7,0.7-1.7,1.6
		c0,1,0.6,1.7,1.6,1.7c0.3,0,0.7-0.1,0.9-0.2v-0.9h-0.9v-0.8h1.8v2.1c-0.6,0.4-1.2,0.5-1.9,0.5C112,60.3,111,59.3,111,57.8z"/>
	<path class="st7" d="M116.8,55.4h1.2l2.1,3.6h0v-3.6h0.9v4.8h-1.2l-2.1-3.7h0v3.7h-0.9V55.4z"/>
</g>
<g>
	<path class="st7" d="M134.2,55.4h1.4c1.4,0,2.7,0.6,2.7,2.4c0,1.7-1.3,2.4-2.7,2.4h-1.5V55.4z M135.6,59.4c1,0,1.7-0.4,1.7-1.6
		c0-1.1-0.7-1.5-1.7-1.5h-0.5v3.1H135.6z"/>
	<path class="st7" d="M139.6,55.4h3.1v0.8h-2.1v1.1h2v0.8h-2v1.2h2.2v0.8h-3.1V55.4z"/>
	<path class="st7" d="M143.4,55.4h1l1.2,3.8h0l1.2-3.8h1l-1.7,4.8h-1L143.4,55.4z"/>
	<path class="st7" d="M148.8,55.4h3.1v0.8h-2.1v1.1h2v0.8h-2v1.2h2.2v0.8h-3.1V55.4z"/>
	<path class="st7" d="M153.1,55.4h0.9v3.9h2v0.9h-2.9V55.4z"/>
	<path class="st7" d="M156.7,57.8c0-1.5,1-2.5,2.5-2.5c1.4,0,2.5,1,2.5,2.5c0,1.5-1,2.5-2.5,2.5C157.7,60.3,156.7,59.3,156.7,57.8z
		 M160.6,57.8c0-0.9-0.5-1.6-1.5-1.6c-0.9,0-1.5,0.7-1.5,1.6c0,0.9,0.5,1.6,1.5,1.6C160.1,59.4,160.6,58.7,160.6,57.8z"/>
	<path class="st7" d="M162.8,55.4h1.7c1,0,1.8,0.5,1.8,1.5c0,1.1-0.8,1.5-1.8,1.5h-0.7v1.8h-0.9V55.4z M164.4,57.6
		c0.6,0,0.9-0.2,0.9-0.7c0-0.5-0.3-0.7-0.9-0.7h-0.7v1.4H164.4z"/>
</g>
</svg>
